<svg width="128" height="128" viewBox="0 0 128 128" fill="none" xmlns="http://www.w3.org/2000/svg">
<path d="M74.6667 69.3334V90.6667H53.3333V69.3334H37.3333L64 42.6667L90.6667 69.3334H74.6667ZM103.2 53.4934C99.5733 35.1467 83.4133 21.3334 64 21.3334C48.5867 21.3334 35.2 30.08 28.5333 42.8267C12.48 44.5867 0 58.1334 0 74.6667C0 83.1536 3.37142 91.293 9.37258 97.2941C15.3737 103.295 23.5131 106.667 32 106.667H101.333C104.835 106.667 108.303 105.977 111.538 104.637C114.774 103.297 117.713 101.332 120.19 98.8562C122.666 96.38 124.63 93.4403 125.97 90.2049C127.31 86.9696 128 83.502 128 80C128 65.92 117.067 54.5067 103.2 53.4934Z" fill="#F0F6FC" fill-opacity="0.25"/>
</svg>
