<svg width="547" height="95" viewBox="0 0 547 95" fill="none" xmlns="http://www.w3.org/2000/svg">
<path d="M89.4345 44.803L80.1664 35.903L114.513 3L123.509 11.9L89.4345 44.803Z" fill="#F0F6FC"/>
<path d="M74.9871 35.903L65.719 44.803L31.3724 11.9L40.6405 3L74.9871 35.903Z" fill="#F0F6FC"/>
<path d="M46.6133 53.8103V41.1345H0L1.09992e-10 53.8103H46.6133Z" fill="#F0F6FC"/>
<path d="M65.719 49.9273L74.9871 58.8273L40.6405 92L31.3724 83.1L65.719 49.9273Z" fill="#F0F6FC"/>
<path d="M80.1664 58.8273L89.4345 49.9273L123.509 83.1L114.513 92L80.1664 58.8273Z" fill="#F0F6FC"/>
<path d="M108.387 40.989V53.6647H155V40.989H108.387Z" fill="#F0F6FC"/>
<path d="M244.32 45.6224C249.412 47.2925 253.45 50.1055 256.435 54.0612C259.42 57.929 260.913 62.7637 260.913 68.5654C260.913 76.5647 257.84 82.762 251.694 87.1572C245.549 91.4645 236.594 93.6181 224.829 93.6181H179V1.31856H222.195C233.082 1.31856 241.466 3.47222 247.348 7.77954C253.231 11.9989 256.172 17.8446 256.172 25.3165C256.172 29.8875 255.118 33.9311 253.011 37.4473C250.904 40.9634 248.007 43.6885 244.32 45.6224ZM196.12 14.7679V40.2162H220.351C226.322 40.2162 230.887 39.1614 234.048 37.0517C237.296 34.8541 238.92 31.6895 238.92 27.558C238.92 23.3386 237.296 20.1741 234.048 18.0643C230.887 15.8667 226.322 14.7679 220.351 14.7679H196.12ZM223.775 80.1688C237.033 80.1688 243.661 75.7296 243.661 66.8513C243.661 57.9729 237.033 53.5338 223.775 53.5338H196.12V80.1688H223.775Z" fill="#F0F6FC"/>
<path d="M279.184 1.31856H296.304V79.1139H344.504V93.6181H279.184V1.31856Z" fill="#F0F6FC"/>
<path d="M399.411 94.9367C390.017 94.9367 381.545 92.9149 373.995 88.8713C366.444 84.7398 360.518 79.07 356.216 71.8618C351.914 64.5658 349.763 56.4346 349.763 47.4684C349.763 38.5021 351.914 30.4149 356.216 23.2067C360.518 15.9107 366.444 10.2409 373.995 6.19726C381.545 2.06575 390.017 0 399.411 0C408.805 0 417.278 2.06575 424.828 6.19726C432.378 10.2409 438.304 15.8667 442.606 23.0749C446.908 30.2831 449.059 38.4142 449.059 47.4684C449.059 56.5225 446.908 64.6537 442.606 71.8618C438.304 79.07 432.378 84.7398 424.828 88.8713C417.278 92.9149 408.805 94.9367 399.411 94.9367ZM399.411 79.9051C405.557 79.9051 411.088 78.5426 416.004 75.8175C420.921 73.0046 424.784 69.1368 427.593 64.2141C430.403 59.2036 431.808 53.6217 431.808 47.4684C431.808 41.315 430.403 35.7771 427.593 30.8544C424.784 25.8439 420.921 21.9761 416.004 19.2511C411.088 16.4381 405.557 15.0316 399.411 15.0316C393.266 15.0316 387.734 16.4381 382.818 19.2511C377.901 21.9761 374.038 25.8439 371.229 30.8544C368.419 35.7771 367.015 41.315 367.015 47.4684C367.015 53.6217 368.419 59.2036 371.229 64.2141C374.038 69.1368 377.901 73.0046 382.818 75.8175C387.734 78.5426 393.266 79.9051 399.411 79.9051Z" fill="#F0F6FC"/>
<path d="M509.875 94.9367C500.568 94.9367 492.14 92.9149 484.589 88.8713C477.127 84.7398 471.245 79.07 466.943 71.8618C462.729 64.6537 460.621 56.5225 460.621 47.4684C460.621 38.4142 462.772 30.2831 467.074 23.0749C471.376 15.8667 477.259 10.2409 484.721 6.19726C492.272 2.06575 500.7 0 510.006 0C517.557 0 524.448 1.31857 530.682 3.9557C536.915 6.59283 542.183 10.4167 546.485 15.4272L535.423 25.8439C528.75 18.6357 520.542 15.0316 510.796 15.0316C504.475 15.0316 498.812 16.4381 493.808 19.2511C488.804 21.9761 484.897 25.7999 482.087 30.7226C479.278 35.6452 477.873 41.2271 477.873 47.4684C477.873 53.7096 479.278 59.2915 482.087 64.2141C484.897 69.1368 488.804 73.0046 493.808 75.8175C498.812 78.5426 504.475 79.9051 510.796 79.9051C520.542 79.9051 528.75 76.257 535.423 68.961L546.485 79.5095C542.183 84.52 536.871 88.3439 530.55 90.981C524.317 93.6181 517.425 94.9367 509.875 94.9367Z" fill="#F0F6FC"/>
</svg>
